<svg width="50" height="50" viewBox="0 0 50 50" fill="none" xmlns="http://www.w3.org/2000/svg">
<path d="M25 0.552246C18.2156 0.552246 17.3625 0.583101 14.6969 0.700351C12.0312 0.823772 10.2156 1.23723 8.625 1.84816C6.95576 2.46627 5.44419 3.43843 4.19688 4.69609C2.92312 5.92765 1.93852 7.42013 1.3125 9.06827C0.69375 10.6357 0.271875 12.4315 0.15 15.0542C0.03125 17.6923 0 18.5315 0 25.2395C0 31.9412 0.03125 32.7805 0.15 35.4124C0.275 38.0413 0.69375 39.834 1.3125 41.4045C1.95312 43.0275 2.80625 44.4036 4.19688 45.7767C5.58438 47.1497 6.97813 47.9951 8.62187 48.6246C10.2156 49.2355 12.0281 49.6521 14.6906 49.7724C17.3594 49.8896 18.2094 49.9205 25 49.9205C31.7906 49.9205 32.6375 49.8896 35.3063 49.7724C37.9656 49.649 39.7875 49.2355 41.3781 48.6246C43.0462 48.0061 44.5567 47.0339 45.8031 45.7767C47.1937 44.4036 48.0469 43.0275 48.6875 41.4045C49.3031 39.834 49.725 38.0413 49.85 35.4124C49.9688 32.7805 50 31.9412 50 25.2364C50 18.5315 49.9688 17.6923 49.85 15.0573C49.725 12.4315 49.3031 10.6357 48.6875 9.06827C48.0615 7.42013 47.0769 5.92765 45.8031 4.69609C44.5558 3.43843 43.0442 2.46627 41.375 1.84816C39.7812 1.23723 37.9625 0.820686 35.3031 0.700351C32.6344 0.583101 31.7875 0.552246 24.9937 0.552246H25ZM22.7594 5.00156H25.0031C31.6781 5.00156 32.4688 5.02316 35.1031 5.14349C37.5406 5.25149 38.8656 5.65569 39.7469 5.99201C40.9125 6.43941 41.7469 6.97629 42.6219 7.84024C43.4969 8.70418 44.0375 9.52493 44.4906 10.6789C44.8344 11.5459 45.2406 12.8542 45.35 15.2609C45.4719 17.862 45.4969 18.6426 45.4969 25.2302C45.4969 31.8178 45.4719 32.6015 45.35 35.2026C45.2406 37.6093 44.8313 38.9145 44.4906 39.7846C44.087 40.855 43.4476 41.8235 42.6187 42.6202C41.7437 43.4841 40.9125 44.0179 39.7438 44.4653C38.8688 44.8047 37.5438 45.2058 35.1031 45.3169C32.4688 45.4342 31.6781 45.4619 25.0031 45.4619C18.3281 45.4619 17.5344 45.4342 14.9 45.3169C12.4625 45.2058 11.1406 44.8047 10.2594 44.4653C9.17448 44.0681 8.19249 43.4378 7.38437 42.6202C6.55398 41.8229 5.91353 40.8533 5.50938 39.7815C5.16875 38.9145 4.75938 37.6062 4.65 35.1995C4.53125 32.5984 4.50625 31.8178 4.50625 25.224C4.50625 18.6303 4.53125 17.8558 4.65 15.2547C4.7625 12.848 5.16875 11.5398 5.5125 10.6697C5.96563 9.51876 6.50937 8.69492 7.38437 7.83098C8.25937 6.96703 9.09062 6.43324 10.2594 5.98584C11.1406 5.64643 12.4625 5.24532 14.9 5.13424C17.2063 5.02933 18.1 4.99848 22.7594 4.99539V5.00156ZM38.3469 9.09913C37.9529 9.09913 37.5628 9.17574 37.1988 9.3246C36.8348 9.47346 36.5041 9.69165 36.2256 9.9667C35.947 10.2418 35.726 10.5683 35.5752 10.9277C35.4245 11.2871 35.3469 11.6722 35.3469 12.0612C35.3469 12.4502 35.4245 12.8354 35.5752 13.1948C35.726 13.5541 35.947 13.8807 36.2256 14.1557C36.5041 14.4308 36.8348 14.649 37.1988 14.7978C37.5628 14.9467 37.9529 15.0233 38.3469 15.0233C39.1425 15.0233 39.9056 14.7112 40.4682 14.1557C41.0308 13.6002 41.3469 12.8468 41.3469 12.0612C41.3469 11.2756 41.0308 10.5222 40.4682 9.9667C39.9056 9.4112 39.1425 9.09913 38.3469 9.09913ZM25.0031 12.5611C23.3002 12.5348 21.609 12.8434 20.0281 13.4687C18.4471 14.0939 17.0079 15.0235 15.7942 16.2033C14.5806 17.383 13.6168 18.7894 12.9589 20.3405C12.301 21.8915 11.9622 23.5563 11.9622 25.2379C11.9622 26.9195 12.301 28.5843 12.9589 30.1354C13.6168 31.6864 14.5806 33.0928 15.7942 34.2725C17.0079 35.4523 18.4471 36.3819 20.0281 37.0072C21.609 37.6325 23.3002 37.941 25.0031 37.9148C28.3736 37.8628 31.5882 36.5044 33.9531 34.1327C36.3179 31.761 37.6434 28.5662 37.6434 25.2379C37.6434 21.9097 36.3179 18.7149 33.9531 16.3431C31.5882 13.9714 28.3736 12.613 25.0031 12.5611ZM25.0031 17.0073C26.0976 17.0073 27.1814 17.2202 28.1926 17.6337C29.2037 18.0473 30.1225 18.6534 30.8964 19.4175C31.6703 20.1817 32.2842 21.0889 32.7031 22.0872C33.1219 23.0856 33.3375 24.1557 33.3375 25.2364C33.3375 26.317 33.1219 27.3871 32.7031 28.3855C32.2842 29.3839 31.6703 30.2911 30.8964 31.0552C30.1225 31.8193 29.2037 32.4255 28.1926 32.839C27.1814 33.2526 26.0976 33.4654 25.0031 33.4654C22.7927 33.4654 20.6728 32.5985 19.1098 31.0552C17.5468 29.512 16.6688 27.4189 16.6688 25.2364C16.6688 23.0539 17.5468 20.9608 19.1098 19.4175C20.6728 17.8743 22.7927 17.0073 25.0031 17.0073Z" fill="#939393"/>
</svg>
